<?xml version="1.0" standalone="no"?>
<!DOCTYPE svg PUBLIC "-//W3C//DTD SVG 20010904//EN"
 "http://www.w3.org/TR/2001/REC-SVG-20010904/DTD/svg10.dtd">
<svg version="1.0" xmlns="http://www.w3.org/2000/svg"
 width="161.000000pt" height="166.000000pt" viewBox="0 0 161.000000 166.000000"
 preserveAspectRatio="xMidYMid meet">
<metadata>
Created by potrace 1.16, written by Peter Selinger 2001-2019
</metadata>
<g transform="translate(0.000000,166.000000) scale(0.100000,-0.100000)"
fill="#000000" stroke="none">
<path d="M0 830 l0 -830 805 0 805 0 0 196 0 196 -57 -7 c-32 -4 -66 -11 -76
-17 -25 -13 -75 0 -90 23 -6 10 -22 19 -35 19 -30 0 -20 16 15 23 18 3 36 -2
55 -16 25 -18 30 -19 39 -7 15 24 6 55 -14 53 -15 -1 -18 4 -14 24 4 21 0 28
-24 36 -39 15 -37 24 6 29 39 4 45 2 61 -27 6 -11 23 -21 39 -23 24 -3 27 -7
22 -32 -4 -19 -1 -33 12 -44 35 -32 78 -11 47 23 -21 23 -21 52 -1 45 12 -5
15 3 15 41 0 40 -2 46 -15 35 -17 -14 -55 -4 -55 16 0 8 9 14 20 14 11 0 20 7
20 15 0 8 7 15 15 15 9 0 15 9 15 21 0 15 -5 19 -15 15 -8 -3 -15 -1 -15 4 0
6 6 10 14 10 11 0 14 19 13 98 -2 81 -5 96 -17 93 -8 -2 -32 -5 -53 -5 -21 -1
-41 -7 -45 -13 -4 -7 -20 -16 -35 -22 -15 -6 -27 -16 -27 -22 0 -6 7 -9 15 -5
20 7 20 -41 1 -67 -14 -18 -14 -17 -21 2 -7 23 -25 27 -43 9 -16 -16 -15 -28
2 -28 8 0 18 -5 22 -12 5 -7 2 -9 -8 -5 -24 9 -52 -16 -45 -42 3 -11 1 -21 -4
-21 -5 0 -9 5 -9 10 0 6 -7 10 -15 10 -20 0 -19 9 2 32 10 11 13 18 8 17 -22
-5 -45 14 -45 37 0 13 -4 24 -10 24 -13 0 -13 37 0 45 6 4 4 17 -5 35 -23 45
-17 48 17 10 25 -29 30 -31 25 -13 -3 12 -2 21 2 20 7 -2 11 7 11 24 0 5 -5 7
-10 4 -5 -3 -10 1 -10 9 0 9 5 16 11 16 6 0 9 6 6 14 -3 8 1 16 8 18 13 3 13
7 1 29 -12 23 -11 27 6 38 30 19 10 34 -38 28 -51 -5 -56 3 -14 22 20 8 35 10
43 3 7 -5 39 -13 71 -17 58 -7 95 -19 169 -57 l37 -19 0 340 0 341 -805 0
-805 0 0 -830z m507 530 c3 -8 5 -26 4 -40 -3 -34 54 -99 99 -114 24 -8 36
-18 38 -33 5 -34 -40 -31 -63 3 -20 31 -44 19 -26 -14 6 -11 8 -28 4 -37 -5
-14 -2 -16 13 -12 63 19 68 18 108 -19 30 -28 40 -33 47 -23 7 11 18 4 45 -29
22 -26 42 -41 51 -38 8 3 12 2 9 -3 -12 -18 -69 -21 -88 -5 -10 10 -18 12 -18
6 0 -6 6 -13 13 -15 6 -3 -1 -3 -18 -2 -16 2 -36 4 -44 4 -11 1 -10 4 3 14 21
16 14 57 -10 57 -8 0 -14 6 -14 13 0 6 -5 4 -11 -6 -6 -10 -9 -27 -6 -37 9
-33 -7 -44 -40 -28 -28 14 -31 13 -46 -6 -17 -20 -17 -20 -47 9 l-30 29 -16
-22 c-17 -25 -38 -20 -29 7 3 10 -4 30 -17 46 -20 26 -22 26 -29 9 -7 -18 -8
-18 -15 3 -3 13 -10 20 -15 17 -5 -3 -9 0 -9 5 0 6 9 11 21 11 25 0 59 -17 59
-30 0 -20 37 -45 71 -48 31 -3 37 0 42 19 7 25 -12 72 -28 71 -5 -1 -11 -8
-13 -16 -2 -11 2 -14 12 -10 9 3 16 1 16 -5 0 -16 -25 -14 -40 4 -7 8 -10 24
-7 34 3 12 -1 22 -10 25 -12 5 -14 1 -10 -19 l4 -26 -19 21 c-15 16 -23 18
-38 10 -17 -9 -18 -7 -11 18 6 21 4 34 -9 50 -10 11 -20 18 -24 15 -8 -8 -8
16 0 56 5 25 10 30 25 26 11 -4 19 -2 19 4 0 6 7 8 15 5 8 -4 15 -13 15 -21 0
-18 29 -48 38 -39 3 4 0 11 -7 15 -7 5 -11 13 -8 18 4 6 -5 16 -18 23 -14 7
-25 18 -25 23 0 6 -7 18 -16 28 -14 16 -12 18 38 26 35 6 54 5 56 -2 2 -5 6
-17 9 -25z m-182 -41 c-4 -5 1 -9 9 -9 9 0 16 -2 16 -4 0 -2 3 -13 6 -23 5
-14 4 -15 -4 -3 -9 12 -14 10 -32 -13 -12 -15 -25 -25 -30 -22 -12 7 -33 -23
-27 -40 5 -11 0 -13 -23 -8 -36 7 -51 -18 -28 -45 9 -9 17 -23 20 -31 3 -9 22
-16 54 -19 27 -2 50 -5 52 -7 1 -1 4 -20 6 -41 1 -21 8 -40 15 -42 7 -2 16 -9
21 -16 5 -6 23 -28 41 -49 l31 -37 82 3 c61 3 85 0 98 -11 10 -8 28 -15 40
-16 20 -1 23 -6 23 -40 0 -27 -6 -42 -19 -50 -14 -8 -20 -8 -23 2 -3 6 -11 12
-19 12 -8 0 -14 5 -14 10 0 6 -4 10 -10 10 -5 0 -10 -7 -10 -15 0 -14 -4 -14
-27 -2 -16 7 -36 12 -45 10 -10 -3 -18 0 -18 6 0 6 6 11 13 11 19 0 34 13 41
38 6 18 3 22 -12 22 -11 0 -25 -7 -32 -15 -10 -12 -10 -15 0 -15 8 0 11 -3 8
-6 -4 -3 -16 0 -28 6 -18 10 -24 9 -31 -1 -4 -7 -11 -10 -15 -6 -4 4 -12 3
-18 -3 -7 -5 -29 -5 -56 1 -25 6 -57 9 -72 6 -17 -2 -29 2 -33 11 -3 8 -11 12
-19 9 -8 -3 -22 1 -33 8 -12 10 -14 14 -4 15 11 0 11 3 1 15 -7 8 -14 30 -15
47 -2 18 -3 36 -4 41 -1 4 -8 7 -16 7 -9 0 -12 6 -9 15 7 17 -4 19 -40 5 -31
-12 -33 -1 -8 50 11 23 24 35 37 34 30 -1 36 5 23 26 -10 15 -7 24 15 54 15
19 26 41 25 47 -2 7 7 15 20 18 13 3 22 9 20 13 -5 10 44 58 54 52 4 -3 6 -10
3 -15z m577 -259 c20 0 27 -5 26 -17 -1 -10 0 -35 0 -55 2 -33 5 -38 26 -38
14 0 32 7 40 16 9 8 16 11 16 5 0 -6 5 -11 12 -11 6 0 3 9 -7 20 -10 11 -25
20 -33 20 -12 0 -12 3 -2 15 7 9 16 12 19 8 11 -15 31 -13 31 4 0 14 4 12 23
-7 20 -23 23 -39 4 -32 -4 1 -11 -8 -16 -21 -11 -29 -37 -51 -51 -42 -5 3 -10
2 -10 -3 0 -6 -7 -13 -16 -16 -14 -5 -15 -4 -4 9 14 17 7 19 -20 5 -15 -8 -21
-6 -29 7 -9 17 -10 17 -16 1 -11 -27 -32 -21 -38 9 -3 16 -2 30 2 33 12 9 4
50 -14 70 -17 18 -19 19 -30 3 -11 -15 -13 -15 -23 4 -10 18 -8 20 19 21 17 0
34 3 37 7 3 3 10 1 16 -5 5 -5 23 -10 38 -10z m290 -183 c-3 -13 -11 -17 -23
-13 -11 3 -28 9 -39 12 -12 4 -20 2 -20 -5 0 -6 5 -11 10 -11 6 0 10 -13 10
-30 0 -21 5 -30 16 -30 8 0 12 4 9 10 -4 6 11 7 42 3 56 -7 61 -9 45 -25 -7
-7 -12 -21 -12 -31 0 -16 -5 -18 -25 -13 -33 9 -50 -1 -34 -20 6 -8 24 -14 40
-14 20 0 29 -5 29 -16 0 -20 -39 -56 -51 -48 -5 3 -9 1 -9 -5 0 -5 5 -13 11
-17 19 -12 -13 -24 -34 -12 -10 5 -28 8 -38 5 -10 -3 -19 -1 -19 4 0 14 -48
11 -54 -3 -4 -7 -4 -2 -2 11 6 32 -7 62 -43 99 -35 34 -39 52 -13 52 14 0 15
2 2 10 -12 7 -19 1 -34 -27 l-18 -37 -13 30 c-10 25 -10 30 4 38 25 14 26 15
5 32 -10 8 -13 13 -6 9 7 -4 35 -7 62 -9 48 -2 49 -1 43 24 -5 20 -3 23 8 13
14 -14 59 -18 59 -6 0 3 -8 15 -17 26 -17 19 -17 20 1 10 18 -10 66 3 66 19 0
3 11 1 24 -5 16 -8 21 -17 18 -30z m-187 -209 c9 9 -1 -53 -22 -128 -11 -41
-23 -61 -46 -78 -18 -12 -33 -18 -35 -12 -2 6 -8 8 -13 4 -5 -3 -9 3 -9 13 0
23 -19 43 -40 43 -9 0 -25 9 -35 20 -22 25 -38 26 -31 2 5 -14 -3 -20 -39 -31
-42 -12 -63 -41 -31 -41 7 0 19 -6 25 -14 10 -12 6 -15 -19 -21 -38 -8 -39
-25 -1 -25 21 0 30 -6 35 -22 10 -39 7 -58 -11 -58 -22 0 -53 29 -53 50 0 10
-6 23 -14 29 -7 6 -11 22 -8 36 2 15 0 25 -7 25 -6 0 -11 -11 -11 -24 0 -13
-7 -26 -15 -30 -8 -3 -15 -12 -15 -21 0 -17 -16 -20 -25 -5 -3 6 -24 10 -46
10 -30 0 -47 7 -66 26 -14 14 -31 23 -39 20 -8 -3 -34 5 -59 17 -41 21 -43 24
-29 39 12 11 15 25 10 44 -5 20 -10 24 -19 15 -6 -6 -19 -11 -28 -11 -10 0
-21 -12 -26 -27 l-9 -27 -19 22 c-11 12 -24 22 -30 22 -13 0 -35 49 -33 75 0
11 -3 28 -7 38 -7 16 -5 16 19 6 25 -12 63 -57 58 -71 -1 -4 10 -3 24 2 14 6
41 10 60 10 27 0 34 -4 32 -17 -2 -11 5 -19 17 -21 33 -6 42 -22 12 -22 -15 0
-27 -4 -27 -9 0 -5 -3 -16 -6 -25 -5 -12 0 -16 21 -16 18 0 29 6 32 20 3 11
10 20 15 20 6 0 8 -9 5 -20 -3 -13 3 -24 19 -35 26 -17 59 -20 49 -5 -3 6 -14
10 -25 10 -10 0 -20 7 -24 15 -4 12 3 15 32 16 20 1 51 5 67 9 l30 7 -33 13
c-34 13 -36 20 -8 24 21 3 56 36 56 53 0 7 -8 13 -17 13 -9 0 -13 3 -9 8 12
12 30 9 43 -8 10 -13 12 -13 19 3 6 17 7 17 26 0 17 -16 18 -16 12 0 -4 11 -1
17 9 17 8 0 17 -7 21 -15 3 -8 15 -15 26 -15 11 0 20 7 20 15 0 19 24 19 39 1
9 -11 9 -16 0 -22 -20 -12 20 -34 63 -34 21 0 38 -4 38 -10 0 -5 5 -10 10 -10
6 0 10 14 10 30 0 33 11 38 34 15 13 -14 16 -13 26 5 7 14 8 26 0 39 -15 29
-13 46 3 32 8 -6 17 -7 22 -3z m175 -233 c0 -12 -14 -15 -67 -16 l-68 0 38
-14 c31 -12 48 -12 106 -1 37 7 81 20 97 28 l29 14 1 -42 0 -42 -65 -7 c-97
-9 -369 -10 -378 -1 -10 10 24 35 57 42 14 3 32 8 40 11 8 4 21 5 28 4 7 -1
17 12 23 28 6 17 15 31 21 31 6 0 8 -7 5 -15 -4 -8 -2 -17 3 -20 13 -8 52 14
45 25 -3 4 7 12 22 17 21 7 31 5 45 -9 10 -10 18 -25 18 -33z"/>
</g>
</svg>
