<?xml version="1.0" standalone="no"?>
<!DOCTYPE svg PUBLIC "-//W3C//DTD SVG 20010904//EN"
 "http://www.w3.org/TR/2001/REC-SVG-20010904/DTD/svg10.dtd">
<svg version="1.0" xmlns="http://www.w3.org/2000/svg"
 width="161.000000pt" height="166.000000pt" viewBox="0 0 161.000000 166.000000"
 preserveAspectRatio="xMidYMid meet">
<metadata>
Created by potrace 1.16, written by Peter Selinger 2001-2019
</metadata>
<g transform="translate(0.000000,166.000000) scale(0.100000,-0.100000)"
fill="#000000" stroke="none">
<path d="M1163 1565 c-13 -9 -34 -13 -50 -10 -15 2 -5 -2 22 -11 28 -9 85 -32
129 -51 46 -20 101 -36 132 -39 60 -4 113 -23 158 -58 51 -37 56 -39 56 -17 0
14 -5 19 -15 15 -8 -4 -15 -1 -15 5 0 7 7 14 15 17 10 4 15 20 15 45 0 34 -3
39 -24 39 -13 0 -27 -7 -30 -16 -4 -12 -13 -14 -29 -9 -12 4 -35 6 -51 6 -15
-1 -42 3 -60 9 -17 5 -68 17 -113 27 -70 15 -83 20 -88 40 -6 27 -22 29 -52 8z"/>
<path d="M625 1450 c-3 -5 -17 -10 -29 -10 -24 0 -50 -30 -58 -65 -2 -11 -9
-19 -16 -18 -6 2 -14 -8 -18 -21 -7 -31 -31 -40 -50 -21 -9 8 -20 15 -25 15
-14 0 -11 -20 7 -37 14 -14 13 -18 -16 -44 -17 -16 -37 -26 -45 -22 -10 3 -30
-11 -56 -41 -22 -25 -45 -43 -50 -40 -6 4 -8 -51 -6 -148 4 -121 8 -160 22
-188 37 -71 40 -72 41 -12 0 45 4 58 23 74 24 18 24 18 38 -9 8 -15 15 -28 16
-29 1 -1 3 20 4 48 0 28 6 55 12 61 8 8 11 6 11 -5 0 -9 4 -19 8 -22 4 -2 6
11 4 30 -3 21 0 34 7 34 6 0 11 -6 12 -12 11 -139 6 -164 -28 -136 -14 11 -15
11 -11 -2 3 -8 15 -15 27 -14 19 1 22 -3 19 -28 -3 -15 -1 -28 3 -28 4 0 10
-14 14 -31 9 -38 15 -33 19 17 2 22 6 48 8 59 3 11 3 14 1 8 -11 -31 -20 -8
-17 45 3 69 14 100 48 131 14 14 26 28 26 32 0 11 -73 17 -91 8 -21 -11 -39 8
-39 42 0 33 -15 46 -25 22 -3 -10 -1 -19 4 -21 19 -6 12 -22 -10 -22 -11 0
-18 -4 -15 -9 5 -7 -54 -23 -62 -16 -1 1 2 14 8 29 8 23 7 26 -8 24 -13 -2
-17 4 -16 30 1 17 -2 32 -8 32 -5 0 -6 5 -3 10 3 6 17 10 30 10 13 0 26 4 30
9 3 5 20 -4 37 -20 37 -33 46 -34 91 -16 18 8 38 12 45 10 6 -3 12 0 12 6 0
11 -13 15 -36 12 -6 -1 -14 12 -17 28 -4 20 -15 32 -34 39 l-28 10 28 11 c35
14 92 14 117 1 15 -8 24 -6 38 7 28 27 55 46 90 65 24 13 30 13 25 2 -3 -9 2
-14 13 -15 15 0 14 -3 -6 -12 -48 -22 -90 -58 -90 -77 0 -26 10 -50 21 -50 22
0 59 -33 50 -44 -5 -6 -14 -30 -20 -53 -7 -24 -17 -42 -23 -40 -6 1 -13 -4
-15 -10 -3 -7 1 -13 8 -13 8 0 3 -7 -9 -16 -12 -8 -22 -23 -22 -32 0 -11 -3
-13 -8 -6 -4 6 -17 14 -29 18 -19 6 -23 3 -29 -21 -3 -15 -7 -34 -10 -41 -7
-22 18 -38 53 -34 20 3 33 0 33 -7 0 -6 7 -11 16 -11 8 0 20 -13 25 -30 6 -16
17 -30 24 -30 23 0 28 -21 11 -38 -10 -11 -16 -12 -16 -4 0 19 -18 14 -25 -7
-3 -10 -15 -21 -26 -24 -17 -5 -19 -9 -9 -26 6 -12 17 -21 24 -21 8 0 17 -7
20 -16 3 -8 11 -12 17 -8 8 4 7 0 -1 -15 -14 -27 -36 -22 -33 8 3 24 -9 27
-26 7 -8 -9 -8 -16 -2 -20 11 -7 -17 -46 -33 -46 -5 0 -1 9 8 19 19 21 16 26
-33 36 -30 6 -32 5 -23 -11 8 -14 6 -24 -6 -39 -16 -19 -16 -19 1 -6 25 19 32
7 9 -15 -10 -11 -22 -28 -26 -39 l-8 -20 -8 20 c-7 17 -9 17 -9 3 -1 -25 -21
-23 -21 2 0 11 -5 20 -11 20 -7 0 -9 11 -5 30 4 23 2 30 -10 30 -27 0 -25 -25
6 -88 36 -73 58 -89 125 -94 45 -3 50 -1 47 17 -4 19 -2 19 21 -3 18 -17 32
-22 47 -17 23 7 60 60 60 86 0 11 25 -7 67 -47 67 -65 85 -72 91 -39 2 10 0
15 -6 11 -13 -8 -27 76 -18 100 4 9 1 23 -5 31 -7 7 -9 16 -6 20 4 3 16 -14
28 -38 18 -40 20 -41 15 -12 -3 20 -1 33 7 37 9 3 9 5 0 5 -7 1 -13 8 -13 17
0 11 -6 15 -20 11 -28 -7 -25 8 5 21 23 11 27 9 44 -18 10 -16 20 -27 24 -24
3 3 -5 21 -18 40 l-24 35 25 24 c14 14 21 30 18 39 -8 20 -15 20 -60 1 -42
-17 -50 -7 -41 56 4 28 1 43 -10 52 -48 39 -53 48 -53 90 0 37 4 46 25 55 14
7 43 12 65 12 21 0 41 4 44 9 7 11 -26 19 -96 25 -42 4 -48 2 -48 -15 0 -22 4
-23 31 -9 10 6 19 7 19 2 0 -11 -45 -32 -67 -32 -12 0 -13 -3 -4 -14 10 -11 8
-16 -8 -21 -24 -7 -38 -44 -21 -55 9 -6 7 -11 -8 -19 -14 -7 -23 -8 -27 -1 -4
6 -1 9 5 8 8 -2 13 14 14 44 2 41 0 46 -15 38 -9 -5 -19 -17 -23 -26 -5 -12
-9 -14 -20 -5 -7 6 -16 8 -19 4 -4 -3 -9 2 -13 11 -4 9 -4 19 -1 23 6 6 56 15
95 17 12 0 22 6 22 12 0 7 16 26 35 43 19 17 35 35 35 41 0 6 11 16 25 22 20
9 23 16 18 36 -5 23 -4 24 26 20 17 -2 31 -1 31 3 0 4 -10 9 -22 11 -16 2 -25
13 -32 37 -9 32 -7 35 38 78 31 28 46 49 42 59 -3 9 -6 21 -6 28 0 16 -180 14
-221 -2 -35 -14 -63 6 -79 53 -11 34 -32 46 -45 25z"/>
<path d="M1085 1410 c-3 -4 8 -18 24 -29 24 -17 34 -19 56 -11 24 9 26 8 23
-12 -3 -19 -9 -22 -68 -23 -64 -1 -65 -1 -68 -29 -2 -18 4 -40 17 -57 11 -15
18 -34 15 -42 -2 -7 -1 -25 5 -39 5 -15 6 -30 0 -39 -6 -10 -9 -10 -9 -1 0 6
-7 12 -16 12 -11 0 -14 6 -9 20 8 24 -7 26 -25 5 -9 -11 -16 -13 -24 -5 -15
15 -46 12 -46 -4 0 -18 26 -27 56 -20 21 5 24 3 24 -21 0 -15 4 -24 10 -20 6
3 10 1 10 -5 0 -7 6 -10 14 -7 14 5 56 -26 56 -42 0 -4 8 -18 19 -29 18 -22
18 -22 36 -2 22 25 36 26 28 3 -5 -15 -3 -14 10 2 8 11 13 23 11 26 -2 4 5 5
16 2 24 -6 27 -23 4 -23 -11 0 -15 -6 -11 -20 3 -13 -3 -24 -19 -35 -13 -8
-24 -24 -24 -34 0 -10 -7 -24 -15 -31 -27 -23 -16 -26 70 -22 68 4 89 1 103
-11 23 -21 104 -57 114 -51 4 3 8 -3 9 -13 3 -48 1 -103 -4 -117 -3 -8 -1 -17
6 -20 7 -4 2 -4 -10 -2 -24 4 -67 -37 -83 -79 -11 -30 -20 -31 -68 -5 -20 10
-44 21 -53 24 -10 3 -18 20 -22 48 -7 53 -52 98 -97 98 -17 0 -30 3 -30 6 0
16 23 44 35 44 8 0 15 5 15 11 0 6 -7 8 -16 5 -10 -4 -14 -1 -12 6 3 7 15 15
29 19 16 5 18 7 6 8 -22 1 -36 38 -30 77 l4 29 -15 -26 c-8 -14 -26 -30 -40
-37 -25 -11 -28 -25 -12 -51 6 -10 5 -12 -2 -7 -7 4 -12 3 -12 -1 0 -5 -7 -18
-15 -29 -14 -18 -14 -18 -13 9 1 15 7 27 13 27 5 0 2 5 -7 10 -11 7 -26 7 -43
0 -23 -9 -25 -13 -15 -25 11 -13 10 -14 -4 -9 -11 4 -15 13 -11 25 6 19 -9 27
-20 9 -3 -5 -13 -7 -23 -4 -9 2 -7 -1 6 -7 23 -12 30 -29 12 -29 -5 0 -10 -5
-10 -10 0 -14 61 -50 73 -43 10 6 2 -115 -13 -182 -12 -54 -3 -69 37 -62 35 6
58 -25 45 -62 -11 -32 -4 -45 20 -36 8 3 34 2 57 -4 50 -11 93 3 129 42 17 18
20 26 10 30 -8 4 -9 6 -1 6 6 1 18 -6 27 -14 19 -19 37 -19 30 0 -4 10 0 16
12 17 11 0 25 2 31 2 7 1 33 23 58 49 25 26 52 47 59 47 16 0 46 42 46 64 0 8
11 27 25 42 24 26 25 30 25 185 0 137 -2 158 -15 153 -8 -4 -15 -14 -15 -24 0
-10 -7 -21 -16 -24 -22 -8 -26 -8 -19 4 3 5 0 7 -9 4 -8 -3 -23 4 -33 15 -19
23 -43 28 -43 9 0 -6 -10 -2 -23 10 -17 16 -33 21 -55 18 -35 -4 -42 7 -15 23
15 8 15 11 3 26 -14 16 -13 17 7 11 20 -6 21 -4 16 27 -4 29 -2 35 16 40 28 7
102 -19 123 -44 17 -20 18 -20 24 -3 4 11 9 22 11 26 2 4 -3 5 -11 2 -12 -4
-16 0 -16 15 0 18 -5 21 -27 19 -25 -3 -28 0 -38 52 -7 36 -16 55 -25 56 -8 1
-21 2 -28 3 -7 0 -11 5 -7 10 3 5 1 12 -5 16 -5 3 -10 1 -10 -4 0 -16 -26 -13
-40 4 -7 9 -19 14 -27 11 -8 -3 -16 1 -20 10 -7 18 -71 46 -85 38 -9 -6 -63 7
-115 27 -13 5 -25 4 -28 -1z"/>
<path d="M224 1363 c-5 -9 -19 -17 -31 -18 -12 0 -28 -7 -36 -13 -12 -10 -16
-9 -21 3 -3 9 -18 15 -36 15 -23 0 -33 -6 -42 -25 -12 -27 -27 -32 -46 -13 -9
9 -12 -135 -12 -650 l0 -662 805 0 805 0 0 175 0 176 -22 -12 c-13 -7 -45 -30
-73 -52 -94 -75 -342 -162 -472 -166 -22 0 -54 -6 -69 -11 -23 -9 -31 -8 -40
4 -13 18 -34 21 -34 6 0 -5 -9 -10 -20 -10 -21 0 -45 43 -34 61 8 14 -15 39
-31 33 -7 -3 -23 0 -35 6 -16 9 -25 9 -36 -1 -19 -16 -44 5 -44 37 0 29 -25
23 -34 -9 -9 -34 -18 -12 -11 27 7 35 22 42 52 23 6 -4 13 -1 16 5 3 8 9 3 15
-12 11 -25 11 -25 11 8 1 21 -4 32 -13 32 -18 0 -66 56 -66 77 0 21 -68 8 -97
-19 -13 -12 -29 -18 -38 -14 -11 4 -14 2 -9 -6 5 -7 2 -9 -8 -5 -22 8 -38 -12
-39 -48 0 -26 -2 -27 -9 -10 -7 17 -9 17 -9 3 -1 -10 -5 -18 -10 -18 -5 0 -5
16 -1 37 9 40 -1 63 -27 63 -11 0 -13 -5 -8 -17 19 -44 15 -65 -4 -25 -11 23
-17 50 -14 58 5 14 3 14 -14 6 -38 -21 -92 6 -61 30 9 7 18 24 20 38 3 23 0
25 -40 24 -32 -1 -42 2 -38 12 3 8 0 11 -10 7 -12 -4 -20 17 -11 31 1 2 -7 14
-18 26 -11 12 -18 33 -17 50 3 36 -16 49 -35 24 -9 -12 -12 -31 -8 -52 4 -23
3 -32 -4 -27 -6 3 -11 14 -11 23 0 13 -2 14 -9 3 -5 -7 -6 -23 -3 -35 10 -41
-15 -2 -43 68 -36 92 -55 306 -35 391 17 69 96 204 159 270 34 36 46 56 43 73
-4 26 -23 29 -38 5z"/>
<path d="M1022 353 c-23 -5 -43 -39 -44 -78 -1 -11 -9 -29 -19 -40 -9 -11 -20
-29 -23 -41 -5 -17 0 -23 33 -32 63 -19 73 -17 67 18 -17 88 -18 83 24 115 61
44 41 74 -38 58z"/>
</g>
</svg>
