<?xml version="1.0" standalone="no"?>
<!DOCTYPE svg PUBLIC "-//W3C//DTD SVG 20010904//EN"
 "http://www.w3.org/TR/2001/REC-SVG-20010904/DTD/svg10.dtd">
<svg version="1.0" xmlns="http://www.w3.org/2000/svg"
 width="161.000000pt" height="166.000000pt" viewBox="0 0 161.000000 166.000000"
 preserveAspectRatio="xMidYMid meet">
<metadata>
Created by potrace 1.16, written by Peter Selinger 2001-2019
</metadata>
<g transform="translate(0.000000,166.000000) scale(0.100000,-0.100000)"
fill="#000000" stroke="none">
<path d="M0 1145 l0 -515 41 0 c31 0 40 3 36 14 -4 10 6 15 36 19 23 3 42 5
43 4 1 -1 -19 -17 -43 -35 -25 -18 -42 -28 -38 -23 4 7 -8 11 -34 11 -49 0
-55 -17 -8 -23 l32 -3 -33 -13 -32 -13 0 -284 0 -284 580 0 c367 0 580 4 580
10 0 6 -9 10 -19 10 -11 0 -23 5 -26 10 -3 6 1 10 9 10 23 0 20 27 -4 35 -10
3 -28 1 -40 -5 -13 -7 -20 -7 -20 -1 0 6 -11 13 -25 17 -44 11 -27 26 23 19
94 -12 112 -16 124 -29 11 -11 16 -11 26 1 10 10 10 13 -3 13 -9 0 -14 4 -10
9 3 6 13 9 23 9 9 -1 43 2 75 7 31 4 57 5 57 3 0 -3 -20 -17 -43 -33 -24 -15
-52 -40 -61 -56 l-17 -29 190 0 191 0 0 210 0 211 -30 6 c-28 5 -52 23 -32 23
5 0 12 12 15 28 3 15 9 36 13 47 5 13 -2 9 -20 -12 -29 -35 -94 -79 -102 -70
-3 3 8 13 25 21 32 17 61 62 61 95 0 31 -17 33 -38 4 -14 -20 -24 -24 -38 -18
-17 7 -16 9 10 20 20 8 25 15 16 20 -19 11 9 26 37 18 13 -3 23 -1 23 3 -1 20
-62 75 -107 94 -26 12 -65 30 -86 41 -21 10 -44 19 -51 19 -10 0 -11 11 -6 48
4 26 8 159 9 297 1 159 6 254 13 262 14 17 53 16 68 -2 9 -10 9 -23 2 -47 -15
-48 -25 -114 -17 -106 4 4 15 40 25 80 11 48 22 73 31 73 8 0 14 5 14 12 0 6
3 14 6 18 4 3 5 15 2 26 -7 27 -53 26 -53 -1 0 -17 -7 -20 -40 -20 -25 0 -40
5 -41 13 0 6 0 65 1 130 1 98 -1 117 -14 117 -13 0 -16 -21 -18 -127 l-3 -128
-80 0 -80 0 4 128 3 127 -40 0 c-49 0 -50 -2 -38 -130 5 -53 6 -105 3 -114 -5
-12 -19 -16 -52 -16 l-46 0 1 113 c1 61 1 120 1 130 -1 16 -31 17 -481 17
l-480 0 0 -515z m697 277 c9 -6 12 -35 11 -95 -2 -84 -1 -88 28 -118 29 -30
29 -32 32 -158 l4 -128 36 13 c44 16 112 18 112 4 0 -5 1 -13 3 -17 1 -5 -23
-11 -53 -14 -30 -4 -69 -10 -86 -13 -27 -6 -32 -3 -38 16 -12 39 -14 141 -4
175 7 25 5 40 -11 70 -11 22 -27 45 -36 53 -11 9 -15 27 -14 59 1 25 -1 100
-4 166 -3 66 -2 92 1 57 4 -34 13 -66 19 -70z m577 -48 c15 -6 16 -36 16 -255
-1 -227 -3 -249 -18 -249 -9 0 -28 -3 -42 -5 -22 -5 -22 -4 -5 4 11 5 14 10 8
10 -18 1 -16 28 2 35 22 8 20 66 -2 67 -11 0 -13 3 -5 6 6 2 12 16 12 29 0 17
-6 24 -19 24 -11 0 -23 5 -26 10 -4 6 -23 9 -43 8 l-37 -3 4 150 c1 83 8 156
13 163 11 12 113 17 142 6z m-216 -80 c2 -45 -3 -88 -12 -115 -13 -38 -13 -45
-1 -52 21 -11 19 -54 -2 -65 -10 -5 -35 -10 -57 -10 l-38 -1 6 157 c3 86 6
158 6 160 0 2 21 2 48 0 l47 -3 3 -71z m-640 -275 c-3 -17 0 -33 6 -35 6 -2
11 -20 10 -39 -1 -19 2 -35 7 -35 5 0 9 5 9 10 0 6 18 10 40 10 36 0 40 -2 40
-25 0 -15 6 -25 14 -25 21 0 31 -21 15 -31 -8 -5 22 -6 75 -2 61 4 87 3 83 -4
-4 -6 -32 -14 -63 -18 -41 -5 -53 -10 -45 -18 8 -8 28 -7 74 1 87 16 247 15
327 -3 36 -8 90 -14 121 -15 38 0 61 -5 69 -15 10 -13 9 -15 -8 -15 -12 0 -24
5 -27 10 -10 16 -42 12 -49 -7 -6 -14 -8 -15 -19 0 -6 8 -28 18 -47 21 -19 3
-30 3 -24 0 19 -8 4 -46 -16 -41 -9 2 -24 0 -33 -5 -14 -7 -16 -4 -11 20 4 17
1 32 -5 36 -7 5 -11 -2 -11 -18 0 -14 -5 -26 -11 -26 -5 0 -7 -6 -3 -12 3 -7
-5 -1 -18 15 -14 15 -32 27 -39 27 -8 1 0 7 16 15 l30 14 -45 -1 c-58 -2 -70
-6 -63 -24 3 -8 0 -14 -6 -14 -6 0 -11 4 -11 10 0 19 -50 23 -70 5 -11 -10
-17 -21 -15 -26 3 -4 -3 -10 -14 -14 -21 -6 -66 8 -87 30 -16 16 -74 21 -74 6
0 -4 12 -6 28 -3 27 5 27 5 8 -17 -22 -24 -48 -27 -69 -7 -13 13 -17 12 -36
-5 -21 -20 -30 -12 -9 9 8 8 2 8 -25 0 -21 -6 -37 -14 -37 -18 0 -4 -11 -5
-24 -3 -13 3 -34 0 -46 -7 -18 -10 -19 -14 -8 -27 12 -15 9 -16 -19 -10 -27 5
-35 2 -53 -20 -24 -31 -25 -37 -4 -57 17 -18 64 -22 64 -6 0 6 -8 10 -19 10
-10 0 -24 7 -31 15 -13 15 -5 39 11 29 5 -3 7 -10 4 -15 -4 -5 0 -9 8 -9 29 0
77 -32 77 -51 0 -10 7 -19 15 -19 26 0 17 -19 -12 -27 -27 -7 -27 -7 16 -20
25 -7 74 -16 109 -19 64 -7 64 -7 53 15 -7 12 -8 21 -2 21 5 0 11 -5 13 -11 3
-9 14 -9 41 0 31 11 36 15 26 27 -6 8 -19 14 -29 14 -10 0 -20 8 -24 18 -3 9
-9 23 -12 30 -3 6 -1 12 5 12 6 0 11 -7 11 -15 0 -17 25 -20 35 -5 3 6 -1 10
-11 10 -13 0 -14 3 -5 14 9 11 5 18 -21 34 -18 11 -40 22 -48 25 -8 3 1 5 20
4 29 -2 34 1 32 16 -3 16 0 16 17 5 14 -9 24 -9 31 -2 14 14 67 5 74 -12 3 -9
-1 -14 -12 -14 -16 -1 -16 -1 0 -11 17 -10 14 -39 -4 -39 -7 0 -6 5 1 14 9 11
6 15 -16 21 -21 5 -24 8 -12 16 20 13 -7 12 -32 -1 -26 -14 -24 -28 6 -42 l25
-11 -21 -23 c-19 -21 -20 -24 -6 -38 13 -13 25 -14 66 -6 28 5 56 8 63 6 7 -3
26 -7 43 -11 29 -6 29 -7 10 -21 -18 -13 -17 -14 11 -8 25 5 32 2 42 -20 10
-22 9 -26 -6 -27 -12 0 -10 -3 7 -10 34 -14 91 -8 91 9 0 10 5 12 18 6 25 -11
144 -13 162 -2 10 6 26 5 45 -3 17 -6 50 -11 75 -10 35 2 42 0 33 -10 -7 -7
-41 -11 -95 -10 -77 2 -202 1 -273 -1 -131 -4 -465 25 -575 50 -104 24 -120
30 -120 47 0 11 9 11 46 -2 34 -11 49 -12 57 -4 16 16 -1 29 -44 34 -43 5 -59
13 -59 32 0 7 -12 23 -26 34 l-26 20 25 7 c14 3 24 11 21 18 -5 13 85 81 103
78 6 -1 14 2 18 8 3 5 14 10 25 10 10 0 20 6 23 14 3 8 31 16 73 20 80 8 84
10 77 36 -6 22 -41 26 -106 11 -30 -7 -41 -6 -54 7 -16 16 -15 17 5 20 23 4
26 19 24 115 0 20 4 37 10 37 6 0 8 -13 6 -31z m828 -326 c-4 -10 -1 -11 13
-4 29 16 178 -2 153 -18 -9 -5 -5 -15 14 -34 15 -15 21 -27 15 -27 -7 0 -9 -5
-6 -10 3 -6 -1 -13 -9 -16 -9 -3 -14 -10 -11 -14 9 -14 -34 1 -46 17 -10 11
-8 17 9 29 29 20 28 33 -3 29 -14 -1 -25 1 -25 4 0 3 -19 7 -43 8 l-42 3 22
-19 c19 -16 20 -20 7 -25 -9 -3 -29 -6 -44 -6 -16 0 -32 -4 -35 -10 -3 -5 1
-10 9 -10 23 0 19 -17 -5 -23 -14 -4 -20 -11 -16 -20 8 -22 -38 -28 -58 -8
-10 10 -18 12 -23 6 -10 -15 -44 -13 -49 3 -4 11 42 18 84 13 6 -1 10 9 9 24
-2 14 2 25 8 25 21 0 65 25 71 39 3 7 1 19 -4 25 -5 6 -9 13 -10 16 0 23 -17
40 -40 41 l-26 1 25 8 c19 6 29 3 43 -13 10 -11 16 -26 13 -34z"/>
<path d="M1551 1538 c-1 -66 -4 -125 -7 -130 -3 -4 -23 -8 -45 -8 -53 0 -48
-23 7 -30 l39 -5 -3 -130 c-1 -71 -4 -136 -7 -142 -2 -7 -14 -13 -25 -13 -16
0 -20 6 -20 34 0 59 -7 66 -66 66 -36 0 -54 4 -54 13 -1 6 -7 0 -15 -14 -10
-18 -14 -67 -14 -180 0 -85 -1 -173 -1 -196 -1 -47 -9 -40 110 -89 24 -11 59
-35 78 -54 19 -19 31 -29 27 -22 -3 6 -1 12 5 12 6 0 10 20 9 50 -1 28 -6 50
-10 50 -4 0 -1 13 6 28 8 15 17 69 21 120 5 85 4 92 -13 92 -17 1 -17 2 -1 14
11 8 15 20 11 34 -4 16 -1 22 11 22 20 0 21 16 1 23 -11 5 -13 29 -11 132 2
78 7 130 14 137 15 15 16 58 2 58 -6 0 -10 48 -10 125 0 114 -2 125 -18 125
-17 0 -19 -11 -21 -122z"/>
</g>
</svg>
