<?xml version="1.0" standalone="no"?>
<!DOCTYPE svg PUBLIC "-//W3C//DTD SVG 20010904//EN"
 "http://www.w3.org/TR/2001/REC-SVG-20010904/DTD/svg10.dtd">
<svg version="1.0" xmlns="http://www.w3.org/2000/svg"
 width="161.000000pt" height="166.000000pt" viewBox="0 0 161.000000 166.000000"
 preserveAspectRatio="xMidYMid meet">
<metadata>
Created by potrace 1.16, written by Peter Selinger 2001-2019
</metadata>
<g transform="translate(0.000000,166.000000) scale(0.100000,-0.100000)"
fill="#000000" stroke="none">
<path d="M1 1585 c1 -41 5 -76 10 -76 5 -1 15 -2 22 -3 30 -2 72 -136 43 -136
-7 0 -12 10 -13 22 -2 22 -19 38 -40 38 -16 0 -24 -44 -21 -111 2 -51 4 -55
20 -46 29 18 33 -1 5 -23 l-26 -21 -1 -615 0 -615 111 3 c106 3 112 4 120 26
8 20 6 21 -11 12 -26 -14 -40 -13 -40 5 0 8 6 12 13 9 7 -2 26 7 41 21 15 14
30 25 34 25 16 0 7 -46 -13 -63 -17 -16 -17 -18 -2 -13 11 3 17 0 17 -9 0 -8
5 -15 10 -15 6 0 10 12 10 28 1 33 21 62 44 62 19 0 19 2 1 -49 l-14 -41 257
1 c141 0 250 3 242 6 -8 2 -37 13 -63 24 -26 11 -52 17 -57 14 -6 -3 -10 1
-10 10 0 8 -7 18 -15 21 -8 4 -15 12 -15 19 0 7 -4 15 -9 17 -5 2 3 12 17 22
15 11 21 13 15 6 -21 -23 -15 -35 7 -15 20 18 21 18 49 -3 16 -12 45 -30 64
-41 19 -10 45 -25 58 -33 13 -7 31 -21 40 -30 15 -17 46 -18 363 -18 l346 0
-1 270 c0 166 -4 268 -10 265 -5 -4 -9 -15 -9 -26 0 -10 -5 -19 -11 -19 -6 0
-8 8 -4 19 3 11 2 22 -3 24 -13 9 -35 -9 -28 -22 11 -18 -5 -13 -19 6 -11 14
-13 13 -19 -11 -4 -15 -17 -31 -29 -37 -42 -19 -68 -37 -68 -45 1 -5 -6 -17
-15 -28 -13 -15 -18 -16 -25 -5 -7 12 -9 12 -9 0 0 -10 -3 -11 -13 -3 -15 13
-27 6 -44 -25 -11 -19 -10 -24 5 -31 9 -5 23 -7 30 -5 6 3 12 0 12 -6 0 -20
-17 -20 -49 0 -32 19 -32 21 -16 39 9 10 14 24 10 29 -3 6 5 15 19 21 22 8 26
16 26 50 0 29 4 40 15 40 19 0 19 34 0 54 -8 8 -15 19 -15 24 0 4 -10 18 -23
30 -35 33 -99 30 -126 -4 -24 -31 -26 -52 -9 -123 7 -31 17 -51 25 -51 8 0 20
-15 28 -32 12 -29 11 -36 -3 -61 l-17 -28 -13 28 -13 28 6 -28 c5 -26 -7 -37
-20 -17 -4 6 -15 8 -26 5 -11 -4 -19 -2 -19 4 0 10 14 15 33 12 4 0 7 3 7 9 0
5 -4 10 -10 10 -5 0 -10 12 -10 26 0 19 -4 25 -15 20 -11 -4 -15 2 -15 23 0
16 -7 35 -17 42 -15 13 -16 9 -11 -39 5 -54 -5 -79 -17 -41 -11 34 -8 88 5
105 7 8 10 17 6 21 -3 3 -6 1 -6 -6 0 -7 -4 -10 -10 -6 -5 3 -6 13 -3 22 8 21
-23 43 -62 43 -35 0 -75 -24 -75 -46 0 -8 -4 -14 -10 -14 -5 0 -10 -7 -10 -15
0 -8 -4 -15 -10 -15 -5 0 -10 -11 -10 -24 0 -18 -8 -27 -32 -35 -27 -10 -35
-8 -53 9 -23 22 -65 27 -65 8 0 -18 -17 2 -44 52 -25 47 -28 39 34 109 16 19
30 37 30 40 1 3 10 17 20 30 16 18 23 21 34 12 11 -9 15 -8 20 5 5 12 16 15
46 12 28 -2 42 1 51 13 7 10 18 15 26 12 7 -3 13 1 13 8 0 22 -17 42 -28 35
-5 -3 -12 9 -16 26 -6 32 -6 32 -22 10 -8 -12 -20 -22 -26 -22 -6 0 -5 7 3 17
13 15 12 15 -8 4 -29 -15 -29 -8 -2 18 12 11 28 17 35 14 12 -4 12 0 4 22 -12
31 0 59 31 76 16 8 19 17 14 36 -4 16 -2 22 5 18 14 -8 31 11 57 63 12 26 24
39 28 32 4 -6 14 -9 22 -6 9 4 17 -1 20 -13 4 -16 9 -18 30 -10 27 10 47 4 37
-12 -3 -6 5 -7 23 -4 58 13 56 10 48 83 -4 37 -11 72 -16 78 -5 6 -27 16 -49
23 -33 10 -45 9 -69 -3 -16 -9 -31 -22 -34 -30 -4 -10 -18 -13 -52 -9 -30 3
-45 1 -41 -6 8 -12 -11 -24 -44 -29 -20 -3 -23 -1 -12 9 22 23 14 46 -18 53
-16 3 -30 10 -30 16 0 6 5 8 10 5 6 -3 10 -1 10 5 0 7 -7 9 -17 6 -11 -5 -23
0 -33 15 l-17 21 -39 -24 c-21 -14 -44 -23 -51 -21 -6 2 -14 -5 -18 -17 -3
-11 -10 -18 -15 -15 -5 3 -22 -7 -39 -21 -17 -14 -31 -21 -31 -14 0 15 48 62
58 56 4 -2 8 4 8 14 0 10 -6 16 -13 13 -7 -3 -13 2 -13 11 0 10 -6 13 -15 9
-9 -3 -15 -2 -14 3 5 27 -2 55 -13 52 -6 -2 -20 4 -30 14 -25 25 -45 23 -79
-11 -24 -25 -29 -38 -29 -78 0 -27 5 -54 12 -61 9 -9 9 -15 0 -24 -9 -9 -12
-7 -12 9 0 12 -4 25 -10 28 -5 3 -10 1 -10 -5 0 -6 -5 -8 -11 -4 -6 3 -9 15
-6 25 3 11 2 19 -3 19 -4 0 -7 12 -6 26 1 18 14 36 41 57 60 46 59 45 45 61
-7 9 -9 23 -6 32 4 10 1 14 -6 11 -7 -2 -11 -15 -10 -28 2 -13 1 -21 -3 -17
-15 15 -46 -12 -41 -35 3 -12 3 -16 0 -9 -10 22 -24 13 -24 -17 0 -17 -4 -32
-10 -36 -5 -3 -7 -11 -5 -18 3 -7 0 -19 -5 -27 -9 -13 -12 -13 -24 3 -13 16
-14 16 -20 -7 -4 -17 -11 -23 -20 -20 -17 7 -46 -43 -46 -79 0 -14 -8 -27 -22
-33 -13 -6 -17 -9 -10 -7 10 2 10 -2 1 -18 -8 -16 -8 -23 1 -29 14 -9 -3 -50
-21 -50 -6 0 -7 -5 -4 -11 5 -6 12 -4 21 8 14 17 15 16 9 -7 -6 -24 -5 -24 9
-6 17 21 19 32 16 83 -1 27 1 31 19 26 11 -3 34 0 51 5 22 8 30 8 30 -1 0 -8
3 -8 12 1 7 7 28 12 48 12 l35 0 0 -63 c0 -51 5 -71 25 -99 23 -35 58 -52 78
-39 8 5 19 29 27 61 1 3 9 22 18 42 21 46 21 52 2 45 -8 -4 -17 -1 -21 5 -11
17 17 27 45 17 44 -17 121 -22 137 -9 7 7 14 8 14 4 0 -5 -9 -15 -20 -22 -18
-11 -20 -20 -16 -62 2 -27 7 -54 11 -60 3 -5 1 -10 -4 -10 -6 0 -11 -9 -11
-19 0 -11 -6 -26 -13 -33 -7 -7 -18 -22 -25 -33 -7 -13 -11 -15 -12 -6 0 11
-4 9 -14 -5 -13 -17 -17 -17 -37 -6 -20 13 -21 12 -15 -12 4 -15 1 -35 -6 -46
-11 -18 -10 -23 6 -35 16 -12 17 -17 6 -30 -7 -8 -19 -15 -26 -15 -17 0 -18
-16 -1 -24 6 -3 2 -3 -10 0 -13 3 -23 1 -23 -5 0 -6 5 -11 10 -11 15 0 12 -27
-4 -33 -7 -3 -20 0 -27 6 -11 10 -11 9 -1 -5 10 -12 10 -18 2 -23 -6 -4 -14
-4 -17 -1 -3 3 -12 -2 -19 -12 -12 -15 -12 -13 -5 13 16 55 23 66 38 60 11 -4
13 -1 9 11 -3 8 -6 20 -6 25 0 6 -5 7 -10 4 -5 -3 -10 0 -10 9 0 8 -13 28 -30
44 -28 28 -31 29 -65 18 -39 -14 -75 -47 -75 -71 0 -8 -5 -15 -11 -15 -16 0
-4 57 16 76 8 9 15 20 15 25 0 16 -19 10 -32 -11 -7 -11 -21 -20 -30 -20 -10
0 -18 -4 -18 -10 0 -5 -4 -10 -9 -10 -4 0 -8 18 -8 39 0 35 3 40 29 45 16 3
27 9 25 13 -3 5 0 19 6 33 13 32 16 70 4 70 -4 0 -5 5 -1 12 4 7 3 8 -4 4 -7
-4 -12 -15 -12 -24 0 -11 -14 -21 -37 -29 -31 -9 -35 -9 -20 1 9 7 17 18 17
25 0 15 37 51 44 44 8 -8 8 11 0 31 -8 20 -33 21 -40 1 -4 -8 -11 -15 -16 -15
-6 0 -7 7 -4 16 5 14 4 15 -9 4 -9 -7 -14 -19 -11 -27 3 -7 -7 -19 -24 -28
-35 -18 -53 -42 -24 -32 15 6 14 2 -5 -14 -21 -17 -22 -22 -11 -29 9 -6 19 -5
24 0 14 14 23 12 30 -6 4 -11 2 -15 -6 -11 -7 2 -22 1 -33 -4 -19 -7 -19 -8 3
-8 21 -1 24 -5 26 -41 1 -8 7 -15 15 -15 8 0 16 -7 18 -15 4 -13 3 -13 -6 0
-15 21 -8 -54 8 -95 6 -16 14 -36 16 -42 2 -7 14 -13 25 -13 16 0 20 -5 16
-18 -6 -18 46 -82 66 -82 6 0 7 -7 4 -15 -3 -9 1 -18 9 -21 8 -4 15 -14 15
-24 0 -10 5 -20 12 -22 8 -3 7 -11 -4 -27 -12 -16 -17 -19 -22 -9 -5 10 -7 10
-12 1 -10 -22 -22 -14 -29 17 -6 27 -39 57 -57 52 -4 -1 -14 11 -23 27 -8 17
-23 36 -33 43 -10 7 -24 22 -31 33 l-13 20 8 -20 c4 -11 9 -32 12 -47 2 -15
10 -33 18 -39 8 -6 14 -22 14 -35 0 -14 6 -33 12 -44 11 -17 10 -22 -2 -30 -9
-5 -19 -5 -27 2 -10 8 -13 6 -13 -5 0 -8 -6 -17 -13 -20 -9 -3 -7 -9 6 -24 17
-19 24 -73 10 -73 -17 1 -39 26 -36 40 4 13 3 13 -6 0 -6 -8 -11 -13 -12 -10
-9 53 -13 57 -34 40 -12 -10 -15 -10 -15 3 0 9 12 18 30 22 l30 7 -21 40 c-11
22 -18 46 -15 53 6 17 -30 60 -39 45 -3 -5 -1 -10 4 -10 6 0 11 -4 11 -8 0 -5
-7 -9 -15 -9 -13 0 -15 9 -9 46 4 25 3 43 0 39 -4 -3 -10 -21 -13 -38 -11 -71
-22 -76 -22 -12 -1 50 -8 79 -35 136 l-33 73 28 10 c21 8 26 15 22 32 -4 15
-1 21 10 21 10 0 15 8 14 20 -1 11 -5 20 -10 20 -4 0 -5 5 -2 10 4 6 1 18 -6
26 -10 12 -8 18 7 30 10 9 13 13 6 9 -7 -4 -12 0 -12 9 0 9 7 16 15 16 8 0 15
2 15 5 0 3 10 47 21 98 12 50 21 100 21 111 -1 10 2 15 5 12 4 -3 16 13 29 37
40 80 75 129 105 145 16 10 36 33 45 52 30 64 182 216 264 263 l55 32 -90 3
c-64 2 -107 -2 -148 -14 -51 -15 -64 -16 -100 -4 -23 7 -84 15 -135 17 -93 4
-94 4 -87 -18 5 -14 4 -19 -4 -15 -6 4 -11 14 -11 22 0 10 -13 14 -50 14 l-50
0 1 -75z"/>
<path d="M741 1651 c-7 -5 -11 -13 -7 -19 3 -6 2 -13 -4 -17 -5 -3 -10 -3 -10
2 0 4 -12 9 -26 10 -17 1 -23 -2 -16 -9 12 -12 -20 -48 -43 -48 -20 0 -52 -33
-47 -48 2 -7 -3 -18 -11 -26 -18 -18 -11 -59 12 -80 15 -13 20 -13 44 -1 26
13 27 13 27 -10 0 -37 -11 -55 -34 -55 -20 -1 -21 -1 -2 -15 15 -11 23 -12 33
-3 11 8 12 7 7 -6 -4 -9 -1 -16 6 -16 8 0 11 11 8 30 -3 17 -1 30 4 30 7 0 12
-15 9 -32 -2 -11 27 -10 50 2 16 9 19 7 19 -10 0 -28 24 -25 61 8 28 25 30 30
21 62 l-9 35 -7 -32 c-9 -41 -25 -43 -24 -4 1 15 -2 33 -6 39 -3 6 -2 13 4 17
15 9 12 28 -4 22 -10 -4 -19 5 -27 26 -9 24 -13 28 -16 15 -3 -10 -14 -18 -26
-18 -25 -1 -57 -22 -57 -39 0 -20 -25 -11 -36 13 -10 22 -7 28 35 63 25 21 63
51 84 66 31 23 36 31 27 43 -14 16 -20 17 -39 5z"/>
<path d="M935 1635 c-26 -21 -29 -30 -27 -71 1 -35 -3 -51 -16 -60 -9 -8 -12
-14 -5 -14 6 0 14 4 17 9 3 4 24 8 46 8 22 0 43 -4 46 -8 8 -14 31 -11 48 7
27 26 14 82 -27 120 -20 19 -39 34 -44 34 -4 -1 -21 -12 -38 -25z"/>
<path d="M1441 1613 c27 -25 47 -48 44 -51 -2 -3 -11 1 -20 8 -12 10 -15 10
-15 0 0 -8 -3 -10 -7 -6 -5 4 -8 11 -8 15 0 15 -48 56 -68 58 -42 3 -49 -5
-25 -32 12 -14 28 -25 35 -25 7 0 13 -6 13 -14 0 -16 81 -39 106 -29 13 5 16
3 11 -10 -4 -11 2 -19 21 -26 20 -7 22 -10 8 -10 -16 -1 -16 -3 -5 -17 9 -11
10 -17 1 -23 -6 -4 -9 -16 -6 -28 5 -18 9 -20 25 -10 13 8 15 15 7 24 -18 22
9 16 32 -7 l20 -20 0 125 0 125 -110 0 -109 0 50 -47z"/>
<path d="M1260 1640 c-6 -4 -21 -5 -33 -3 -30 6 -87 -51 -69 -69 7 -7 12 -22
12 -35 0 -15 11 -30 31 -42 18 -11 26 -22 20 -25 -6 -4 -11 -11 -11 -17 0 -14
36 -11 50 5 6 8 18 12 25 10 15 -6 39 30 39 61 1 11 -6 38 -15 61 -16 38 -16
41 0 51 13 9 12 10 -10 10 -15 0 -32 -3 -39 -7z"/>
<path d="M1346 1478 c-22 -20 -25 -29 -19 -65 4 -31 10 -43 22 -43 10 0 27 -9
40 -21 39 -36 112 -9 95 35 -7 17 20 16 38 -2 7 -7 16 -12 22 -12 5 0 -9 14
-31 30 -26 19 -44 42 -48 59 -5 22 -13 30 -37 35 -47 9 -55 8 -82 -16z"/>
<path d="M963 1459 c-18 -5 -37 -18 -43 -29 -12 -22 -9 -101 3 -93 4 2 7 -4 7
-14 0 -20 52 -48 74 -40 7 3 18 1 24 -5 18 -18 62 41 59 76 -2 17 -8 31 -14
33 -7 3 -9 -3 -7 -14 3 -10 -2 -27 -10 -38 -15 -19 -15 -19 -16 11 0 16 -6 36
-12 43 -11 10 -10 15 5 25 21 16 22 26 2 26 -9 0 -18 7 -21 15 -7 17 -7 17
-51 4z"/>
<path d="M1152 1400 c-1 -28 -3 -55 -5 -62 -1 -6 9 -17 21 -24 13 -6 29 -17
35 -23 17 -17 69 -12 95 8 25 22 29 51 7 51 -10 0 -15 10 -15 29 0 33 -15 43
-75 47 -22 1 -41 7 -43 13 -9 26 -18 7 -20 -39z"/>
<path d="M1506 1303 c1 -38 5 -81 8 -98 3 -17 0 -33 -7 -38 -8 -5 -5 -7 8 -5
14 2 19 -2 17 -14 -2 -12 2 -16 12 -12 8 3 17 1 21 -5 3 -6 15 -11 26 -11 18
0 19 8 19 110 0 90 -3 110 -15 110 -9 0 -12 6 -8 16 4 12 2 15 -8 12 -8 -3
-14 -11 -14 -19 0 -8 -4 -17 -9 -21 -14 -9 -45 13 -39 29 3 7 1 13 -4 13 -6 0
-9 -30 -7 -67z"/>
<path d="M1390 1295 c0 -9 -19 -24 -44 -35 -25 -10 -49 -27 -55 -37 -10 -20 0
-47 15 -41 12 4 24 -64 14 -81 -6 -11 -10 -10 -19 8 -12 21 -31 21 -31 0 0 -6
5 -7 10 -4 6 3 10 2 10 -4 0 -6 10 -15 21 -22 15 -8 19 -8 15 0 -11 17 31 13
61 -6 24 -16 26 -16 39 3 16 23 24 31 47 47 16 11 15 16 -17 68 -19 31 -34 63
-33 70 1 34 -4 49 -18 49 -8 0 -15 -7 -15 -15z"/>
<path d="M1580 1055 c-7 -8 -10 -24 -7 -35 3 -11 1 -23 -4 -26 -5 -3 -9 2 -9
11 0 9 -5 13 -10 10 -6 -4 -9 -14 -8 -23 4 -20 -57 -28 -78 -11 -20 16 -17 -1
4 -24 16 -19 16 -19 -8 -12 -26 8 -40 22 -40 42 0 13 -53 33 -90 33 -34 0 -78
-44 -62 -62 5 -7 13 -31 17 -53 10 -52 21 -65 56 -65 33 0 35 -6 13 -39 -16
-22 -16 -23 4 -12 15 8 21 8 24 -1 5 -14 48 30 48 49 0 7 6 13 14 13 8 0 12 8
10 23 -6 35 48 83 81 71 9 -4 15 -1 15 7 0 11 3 11 11 -1 8 -12 12 -12 16 -2
4 10 8 9 19 -5 12 -16 13 -9 14 55 0 72 -7 85 -30 57z"/>
<path d="M1074 925 c-21 -21 -24 -31 -18 -62 3 -21 15 -52 25 -69 23 -38 24
-45 4 -38 -8 4 -23 3 -32 -1 -17 -6 -17 -7 1 -21 11 -8 35 -14 54 -14 36 0 41
-22 6 -28 -42 -7 -50 -14 -26 -23 24 -9 55 -2 47 11 -3 4 2 13 9 19 10 8 16 9
21 2 7 -13 38 15 48 42 4 9 13 17 21 17 8 0 20 -8 25 -17 10 -17 10 -17 11 -1
0 9 -5 20 -11 24 -8 4 -10 28 -6 68 l6 61 -20 -25 -19 -25 0 23 c0 13 -13 37
-29 53 -38 37 -82 39 -117 4z"/>
<path d="M1500 821 c0 -5 -14 -8 -31 -7 -25 1 -37 -7 -61 -36 -29 -35 -29 -38
-14 -59 9 -13 16 -33 16 -44 0 -12 14 -29 33 -41 28 -18 41 -21 78 -14 30 6
46 5 51 -3 4 -7 8 8 8 34 0 25 4 49 9 55 5 5 -1 24 -16 47 -19 30 -28 37 -45
31 -18 -5 -20 -3 -16 20 3 14 1 26 -3 26 -5 0 -9 -4 -9 -9z"/>
</g>
</svg>
